PathFileType	4	(X/Y/Z)	D:\Long Term Storage\D'Arcy Smith\Coord20.trc
DataRate	CameraRate	NumFrames	NumMarkers	Units	OrigDataRate	OrigDataStartFrame	OrigNumFrames
120.00	120.00	      100	4	mm	120.00	3630	      4839
Frame#	Time	M1			M2			M3			M4			
		X1	Y1	Z1	X2	Y2	Z2	X3	Y3	Z3	X4	Y4	Z4	

3630	30.242	553.98151	453.57516	76.87126	987.24396	397.28036	532.33228							
3631	30.250	553.60474	460.05142	69.52615	991.35992	407.07028	543.37671							
3632	30.258	553.16589	466.02637	62.57441	995.49677	417.27936	553.40295							
3633	30.267	552.96167	471.44144	56.58919	999.10944	427.44022	564.22369							
3634	30.275	552.95898	476.11606	51.69632	1002.35077	437.23734	571.75360							
3635	30.283	553.12250	479.96466	47.71539	1005.10944	446.85883	580.37994							
3636	30.292	553.62598	482.71606	45.11953	1007.35388	456.12103	586.92609							
3637	30.300	554.35516	484.48599	43.42677	1009.02576	464.91495	593.06226							
3638	30.308	555.33600	485.15564	42.87019	1010.54547	472.93091	599.23651							
3639	30.317	556.44653	484.63199	43.61354	1011.52698	480.58093	605.22040							
3640	30.325	557.70593	483.05771	45.33106	1011.84851	487.47949	609.21014							
3641	30.333	559.12341	480.61121	48.05575	1011.90820	493.40845	613.11646							
3642	30.342	560.78552	477.08380	51.63845	1011.22632	498.81375	616.55035							
3643	30.350	562.36157	472.34604	56.42961	1010.04889	504.34491	619.89990							
3644	30.358	563.96625	467.39981	61.73930	1008.42188	507.86099	622.51782							
3645	30.367	565.76270	461.95093	67.94717	1006.72675	511.73615	624.80530							
3646	30.375	567.71924	456.06271	74.44392	1004.60602	514.80188	626.60266							
3647	30.383	569.67383	449.82016	82.52230	1002.03595	516.73517	628.41455							
3648	30.392	571.60565	443.13443	90.48621	999.55072	517.98669	629.21802							
3649	30.400	573.42242	436.14206	99.01855	995.28784	519.16473	629.63434							
3650	30.408	575.45117	428.98944	108.09341	991.46472	518.99908	629.17004							
3651	30.417	577.21301	421.56989	117.69749	987.76501	518.40399	630.22949							
3652	30.425	579.19116	414.45084	127.79774	983.86621	516.68134	628.66180							
3653	30.433	580.82892	406.79306	139.00580	979.74780	514.66412	627.43103							
3654	30.442	582.52234	398.86472	151.19557	975.38037	511.09216	625.24725							
3655	30.450	584.03302	391.09381	163.51671	971.78491	507.71918	621.86658							
3656	30.458	585.67865	383.46640	176.36191	967.37683	503.54410	619.26379							
3657	30.467	586.97296	375.94705	190.16728	963.14001	498.64844	615.20776							
3658	30.475	588.23102	368.97775	204.21469	958.80688	493.20679	610.80475							
3659	30.483	589.16357	362.48322	218.62585	954.55237	487.26578	605.95819							
3660	30.492	590.06036	356.57285	234.85223	950.29755	480.37524	600.19037							
3661	30.500	590.65198	351.19122	250.58691	946.08929	472.92105	594.23346							
3662	30.508	590.76935	345.62494	267.64920	942.36377	464.66071	585.46735							
3663	30.517	591.11115	341.59116	283.85480	938.35010	457.20093	578.36847							
3664	30.525	591.32861	338.20926	300.22662	934.85626	448.17145	568.59637							
3665	30.533	591.55566	335.16141	315.46954	931.28204	439.39154	558.79669							
3666	30.542	591.09662	333.72559	333.80066	927.86664	430.43533	547.98022							
3667	30.550	590.72437	332.46640	350.46509	925.48230	421.60901	535.43323							
3668	30.558	590.06116	331.73468	367.54880	922.58582	412.36890	522.61066							
3669	30.567	588.97357	332.38016	384.92841	920.16541	403.08182	508.39780							
3670	30.575	588.11633	333.40628	401.59326	917.32935	393.62286	494.29306							
3671	30.583	587.01099	335.09842	418.21451	915.91473	385.17770	477.95114							
3672	30.592	585.56042	337.49277	435.03745	913.74512	376.39566	461.32864							
3673	30.600	583.93158	340.90738	451.16620	913.08813	368.97470	442.82352							
3674	30.608	582.32446	344.97485	467.58728	912.16632	361.72067	424.75293							
3675	30.617	580.41821	349.71829	482.88147	911.65155	355.08948	405.25677							
3676	30.625	578.53741	355.27435	498.09537	911.54712	349.40247	385.21695							
3677	30.633	576.55853	361.29620	512.90234	911.91742	344.48468	364.72620							
3678	30.642	574.49292	367.87512	527.12683	912.73596	340.42279	343.54279							
3679	30.650	572.72552	375.17712	540.53967	913.86261	337.54868	322.36829							
3680	30.658	571.06549	382.86993	553.45886	915.59833	335.58969	300.59531							
3681	30.667	569.58588	390.73248	565.11584	917.28473	335.34537	279.09973							
3682	30.675	568.51709	398.90390	575.66846	919.54193	335.72232	257.66656							
3683	30.683	567.52808	407.03650	585.75342	922.22510	337.31769	236.71991							
3684	30.692	567.06549	415.00876	594.46155	924.77979	339.92184	215.04449							
3685	30.700	566.67322	422.72388	602.36383	928.01935	343.71518	195.93085							
3686	30.708	566.88019	429.89536	609.04987	931.09521	348.25128	176.77295							
3687	30.717	567.64264	436.58539	614.85614	934.39282	353.38712	158.40651							
3688	30.725	568.51160	443.01352	621.72357	937.82556	359.43054	140.78648							
3689	30.733	570.28094	447.90726	625.43945	941.14111	365.92795	124.21526							
3690	30.742	572.35541	452.03363	628.36029	945.68329	373.81207	104.45170							
3691	30.750	574.73688	455.42053	630.42273	948.72223	380.96051	90.37623							
3692	30.758	577.58960	457.58884	631.76208	951.90210	388.38818	77.11153							
3693	30.767	580.47815	459.24335	631.78821	955.14874	395.64963	64.47365							
3694	30.775	583.62250	460.19995	631.11493	958.30542	402.99524	53.69719							
3695	30.783	586.71857	460.53760	630.03125	960.75348	410.00497	43.10920							
3696	30.792	589.73187	460.37320	628.95313	963.72937	416.43069	34.15987							
3697	30.800	592.72906	459.80597	627.02179	965.94244	422.61047	25.89641							
3698	30.808	595.72516	458.68018	624.57782	968.19189	428.19626	18.53448							
3699	30.817	598.40576	457.62619	622.09698	969.94476	433.20239	12.22786							
3700	30.825	601.05170	456.17255	619.09320	971.54498	437.43918	6.65184							
3701	30.833	603.34131	454.51144	616.06177	972.99908	440.91711	1.93367							
3702	30.842	605.54016	452.61508	612.75909	973.73529	443.78534	-2.01723							
3703	30.850	607.37201	450.88675	609.63635	974.74438	445.99411	-4.95733							
3704	30.858	609.00983	448.98926	605.80396	975.35284	447.31815	-6.81128							
3705	30.867	610.10333	447.23520	602.53400	975.84503	447.81461	-7.93328							
3706	30.875	611.08490	445.21869	598.98108	976.21326	447.54752	-8.22259							
3707	30.883	611.52960	443.44864	595.50659	976.27740	446.46188	-7.70482							
3708	30.892	611.75818	441.61246	591.56647	976.08954	444.63058	-6.52314							
3709	30.900	611.71246	439.47449	587.48260	976.27753	442.11655	-4.27179							
3710	30.908	611.34393	437.07962	582.46332	975.65173	438.73651	-1.74515							
3711	30.917	610.90747	434.25195	576.78082	975.07892	434.83511	1.60246							
3712	30.925	610.27209	430.92685	570.41016	974.44189	430.33838	5.49277							
3713	30.933	609.36078	427.20154	563.11237	973.73010	425.31662	10.08992							
3714	30.942	608.46259	422.79681	555.43378	972.63885	419.80515	15.60435							
3715	30.950	607.59930	418.04684	546.48688	971.53400	413.76193	21.56556							
3716	30.958	606.76251	412.83093	536.09186	970.48602	407.67896	28.50086							
3717	30.967	605.85175	407.07962	525.36615	969.27197	401.44785	36.09373							
3718	30.975	604.75928	401.32632	510.95309	968.26904	394.99106	44.66259							
3719	30.983	604.04681	395.19205	497.41098	967.05774	388.64331	53.91473							
3720	30.992	602.91144	389.21329	482.63043	965.99115	382.27649	63.80019							
3721	31.000	601.97540	383.44080	466.05927	964.93964	375.96619	74.45081							
3722	31.008	600.49994	377.76553	447.73471	964.15228	369.96118	85.47196							
3723	31.017	599.06921	372.62909	428.71313	963.38055	363.97925	96.97995							
3724	31.025	597.23608	368.16751	408.09940	962.67761	358.41061	107.87135							
3725	31.033	595.35791	364.35449	386.43799	961.99030	352.49399	123.32971							
3726	31.042	593.35046	361.78867	362.85150	961.49573	347.10791	136.03206							
3727	31.050	590.34485	360.26645	341.27475	961.26324	342.25397	149.10999							
3728	31.058	587.16284	360.11935	318.07751	961.31238	337.57611	162.54623							
3729	31.067	583.56274	361.13666	294.92188	959.99152	332.14645	178.21680							
